<svg xmlns="http://www.w3.org/2000/svg" xmlns:xlink="http://www.w3.org/1999/xlink" width="300" zoomAndPan="magnify" viewBox="0 0 224.87999 225" height="300" preserveAspectRatio="xMidYMid meet" version="1.0"><defs><clipPath id="6e7eda373e"><path d="M 28.117188 32.617188 L 196.75 32.617188 L 196.75 224.9375 L 28.117188 224.9375 Z M 28.117188 32.617188 " clip-rule="nonzero"/></clipPath><clipPath id="ac1d6096f7"><path d="M 14.125 0.0585938 L 210.753906 0.0585938 L 210.753906 181.941406 L 14.125 181.941406 Z M 14.125 0.0585938 " clip-rule="nonzero"/></clipPath></defs><g clip-path="url(#6e7eda373e)"><path fill="#1893f8" d="M 196.578125 57.777344 C 197.890625 92.757812 191.628906 124.117188 177.800781 151.855469 C 176.933594 153.664062 176.039062 155.460938 175.117188 157.238281 C 168.261719 170.445312 159.921875 182.570312 150.367188 193.320312 C 140.8125 204.070312 130.035156 213.445312 118.296875 221.15625 L 112.839844 224.742188 C 112.558594 224.9375 112.175781 224.953125 111.867188 224.753906 L 106.398438 221.15625 C 94.660156 213.449219 83.882812 204.070312 74.328125 193.320312 C 64.773438 182.570312 56.4375 170.445312 49.578125 157.238281 C 42.5625 143.722656 37.199219 129.222656 33.585938 114.160156 C 29.976562 99.09375 28.117188 83.480469 28.117188 67.738281 L 28.117188 57.773438 C 28.117188 57.289062 28.511719 56.898438 28.996094 56.898438 L 38.957031 56.898438 C 50.808594 56.898438 62.558594 55.125 73.898438 51.679688 C 85.242188 48.226562 96.183594 43.097656 106.402344 36.386719 L 111.859375 32.800781 C 112.140625 32.609375 112.523438 32.59375 112.828125 32.792969 L 118.300781 36.386719 C 128.515625 43.097656 139.457031 48.226562 150.804688 51.679688 C 162.140625 55.125 173.890625 56.898438 185.742188 56.898438 L 195.707031 56.898438 C 196.191406 56.898438 196.582031 57.289062 196.582031 57.773438 Z M 130.160156 155.925781 C 130.296875 153.492188 126.386719 131.648438 125.472656 126.371094 C 125.3125 125.4375 124.667969 122.246094 124.734375 121.574219 C 124.871094 120.1875 133.332031 111.75 126.433594 99.859375 C 125.992188 99.101562 126.054688 99.183594 125.855469 99.027344 C 122.675781 94.480469 117.429688 91.484375 111.476562 91.414062 L 111.476562 82.613281 C 111.476562 82.441406 111.527344 82.273438 111.628906 82.117188 C 111.902344 81.71875 112.445312 81.617188 112.84375 81.890625 C 112.875 81.910156 121.8125 88.417969 163.046875 77.742188 C 154.054688 76.710938 146.347656 74.730469 138.878906 71.835938 C 130.246094 68.492188 121.949219 63.933594 112.351562 58.214844 C 102.683594 63.945312 92.515625 68.507812 82.023438 71.851562 C 71.632812 75.160156 60.933594 77.273438 50.105469 78.132812 C 51.542969 102.652344 58.050781 126.160156 68.71875 146.878906 C 79.226562 167.277344 93.765625 184.964844 111.476562 198.25 L 111.476562 155.945312 Z M 130.160156 155.925781 " fill-opacity="1" fill-rule="evenodd"/></g><path fill="#75bbfc" d="M 111.472656 91.410156 L 111.472656 155.949219 L 92.792969 155.972656 C 92.589844 152.484375 96.683594 132.375 97.550781 126.019531 C 97.695312 124.964844 98.375 122.09375 98.199219 121.316406 C 95.25 118.140625 93.449219 113.886719 93.449219 109.210938 C 93.449219 99.378906 101.421875 91.40625 111.253906 91.40625 C 111.328125 91.40625 111.398438 91.40625 111.472656 91.410156 Z M 111.472656 91.410156 " fill-opacity="1" fill-rule="evenodd"/><g clip-path="url(#ac1d6096f7)"><path fill="#3067a2" d="M 206.527344 109.945312 C 205.675781 109.945312 204.886719 110.296875 204.234375 110.902344 L 204.234375 110.4375 C 204.234375 105.605469 200.53125 101.644531 195.8125 101.222656 L 195.8125 83.226562 C 195.8125 37.355469 158.496094 0.0429688 112.628906 0.0429688 C 66.765625 0.0429688 29.453125 37.355469 29.453125 83.226562 L 29.453125 101.222656 C 24.730469 101.644531 21.03125 105.605469 21.03125 110.4375 L 21.03125 111.3125 C 20.316406 110.464844 19.378906 109.945312 18.351562 109.945312 C 16.101562 109.945312 14.277344 112.414062 14.277344 115.457031 L 14.277344 130.261719 C 14.277344 133.300781 16.101562 135.769531 18.351562 135.769531 C 19.378906 135.769531 20.316406 135.25 21.03125 134.402344 L 21.03125 135.289062 C 21.03125 140.390625 25.171875 144.53125 30.28125 144.53125 C 30.460938 144.53125 30.632812 144.515625 30.808594 144.503906 C 34.75 155.332031 46.941406 176.847656 81.765625 178.394531 C 82.265625 180.40625 84.074219 181.898438 86.246094 181.898438 L 98.667969 181.898438 C 101.21875 181.898438 103.292969 179.828125 103.292969 177.277344 C 103.292969 174.71875 101.21875 172.652344 98.667969 172.652344 L 86.246094 172.652344 C 84.140625 172.652344 82.371094 174.054688 81.808594 175.976562 C 48.320312 174.5 36.835938 154.449219 33.125 144.082031 C 36.835938 142.878906 39.523438 139.398438 39.523438 135.289062 L 39.523438 110.4375 C 39.523438 105.867188 36.21875 102.085938 31.878906 101.328125 L 31.878906 83.226562 C 31.878906 38.695312 68.101562 2.464844 112.628906 2.464844 C 157.160156 2.464844 193.390625 38.695312 193.390625 83.226562 L 193.390625 101.328125 C 189.042969 102.085938 185.738281 105.867188 185.738281 110.4375 L 185.738281 135.289062 C 185.738281 140.390625 189.875 144.53125 194.984375 144.53125 C 200.089844 144.53125 204.234375 140.390625 204.234375 135.289062 L 204.234375 134.8125 C 204.886719 135.414062 205.675781 135.769531 206.527344 135.769531 C 208.773438 135.769531 210.601562 133.300781 210.601562 130.261719 L 210.601562 115.457031 C 210.601562 112.414062 208.773438 109.945312 206.527344 109.945312 " fill-opacity="1" fill-rule="nonzero"/></g></svg>