<svg xmlns="http://www.w3.org/2000/svg" xmlns:xlink="http://www.w3.org/1999/xlink" width="300" zoomAndPan="magnify" viewBox="0 0 224.87999 225" height="300" preserveAspectRatio="xMidYMid meet" version="1.0"><defs><g/><clipPath id="5046acadda"><path d="M 24.125 23.503906 L 200.746094 23.503906 L 200.746094 224.9375 L 24.125 224.9375 Z M 24.125 23.503906 " clip-rule="nonzero"/></clipPath><clipPath id="cf12641199"><path d="M 24.125 3.175781 L 75.859375 3.175781 L 75.859375 42.492188 L 24.125 42.492188 Z M 24.125 3.175781 " clip-rule="nonzero"/></clipPath></defs><g clip-path="url(#5046acadda)"><path fill="#1893f8" d="M 200.570312 49.855469 C 201.941406 86.496094 195.382812 119.339844 180.898438 148.394531 C 179.992188 150.289062 179.058594 152.171875 178.089844 154.03125 C 170.910156 167.863281 162.171875 180.5625 152.167969 191.820312 C 142.160156 203.082031 130.871094 212.902344 118.574219 220.980469 L 112.859375 224.734375 C 112.5625 224.941406 112.164062 224.957031 111.84375 224.746094 L 106.113281 220.980469 C 93.820312 212.90625 82.53125 203.082031 72.523438 191.820312 C 62.515625 180.5625 53.785156 167.863281 46.601562 154.03125 C 39.25 139.875 33.632812 124.6875 29.851562 108.910156 C 26.066406 93.128906 24.125 76.777344 24.125 60.289062 L 24.125 49.851562 C 24.125 49.34375 24.535156 48.933594 25.042969 48.933594 L 35.476562 48.933594 C 47.886719 48.933594 60.195312 47.078125 72.070312 43.46875 C 83.957031 39.851562 95.414062 34.480469 106.117188 27.449219 L 111.832031 23.695312 C 112.128906 23.492188 112.527344 23.476562 112.847656 23.6875 L 118.578125 27.449219 C 129.277344 34.480469 140.738281 39.851562 152.621094 43.46875 C 164.5 47.078125 176.808594 48.933594 189.21875 48.933594 L 199.652344 48.933594 C 200.160156 48.933594 200.570312 49.34375 200.570312 49.851562 Z M 131 152.65625 C 131.144531 150.105469 127.046875 127.230469 126.089844 121.699219 C 125.921875 120.722656 125.246094 117.382812 125.320312 116.675781 C 125.464844 115.222656 134.324219 106.386719 127.097656 93.929688 C 126.636719 93.136719 126.703125 93.222656 126.496094 93.0625 C 123.164062 88.296875 117.667969 85.160156 111.429688 85.085938 L 111.429688 75.867188 L 111.433594 75.867188 C 111.433594 75.6875 111.484375 75.511719 111.59375 75.351562 C 111.878906 74.933594 112.449219 74.828125 112.863281 75.109375 C 112.894531 75.128906 122.257812 81.945312 165.445312 70.765625 C 156.03125 69.6875 147.957031 67.613281 140.132812 64.582031 C 131.09375 61.078125 122.402344 56.304688 112.351562 50.3125 C 102.222656 56.3125 91.570312 61.09375 80.582031 64.59375 C 69.699219 68.0625 58.492188 70.273438 47.152344 71.175781 C 48.660156 96.855469 55.472656 121.480469 66.648438 143.179688 C 77.652344 164.542969 92.882812 183.074219 111.433594 196.984375 L 111.433594 152.679688 L 131.003906 152.65625 Z M 131 152.65625 " fill-opacity="1" fill-rule="evenodd"/></g><path fill="#75bbfc" d="M 111.429688 85.082031 L 111.429688 152.679688 L 91.859375 152.703125 C 91.648438 149.050781 95.9375 127.988281 96.847656 121.332031 C 97 120.226562 97.710938 117.222656 97.523438 116.40625 C 94.4375 113.078125 92.550781 108.625 92.550781 103.726562 C 92.550781 93.425781 100.898438 85.078125 111.199219 85.078125 C 111.273438 85.078125 111.351562 85.078125 111.429688 85.082031 Z M 111.429688 85.082031 " fill-opacity="1" fill-rule="evenodd"/><g clip-path="url(#cf12641199)"><path fill="#1893f8" d="M 24.578125 26.152344 C 24.964844 24.90625 24.964844 24.90625 25.609375 23.472656 C 25.597656 23.398438 25.589844 23.324219 25.589844 23.253906 C 25.589844 23.179688 25.589844 23.128906 25.597656 23.078125 C 25.054688 22.230469 25.054688 22.230469 24.648438 21.453125 C 24.625 21.582031 24.59375 21.65625 24.558594 21.679688 C 24.503906 21.679688 24.46875 21.496094 24.480469 21.242188 C 24.492188 21.007812 24.546875 20.808594 24.597656 20.785156 C 24.652344 20.789062 24.6875 20.945312 24.679688 21.175781 C 25.589844 21.160156 25.589844 21.160156 26.964844 21.15625 C 27.347656 18.964844 27.347656 18.964844 27.84375 16.804688 C 27.789062 16.71875 27.765625 16.566406 27.789062 16.40625 C 27.832031 16.125 27.988281 15.859375 28.140625 15.808594 C 28.199219 15.804688 28.253906 15.820312 28.292969 15.855469 C 30.539062 13.984375 30.539062 13.984375 33.320312 12.027344 C 34.308594 10.800781 34.308594 10.800781 35.339844 9.597656 C 35.761719 8.765625 35.761719 8.765625 36.1875 7.957031 C 36.132812 7.929688 36.105469 7.867188 36.132812 7.777344 C 36.15625 7.65625 36.289062 7.527344 36.425781 7.492188 C 36.5625 7.460938 36.65625 7.535156 36.617188 7.671875 C 36.589844 7.796875 36.460938 7.925781 36.324219 7.957031 C 36.308594 7.964844 36.304688 7.964844 36.300781 7.960938 C 35.863281 8.78125 35.863281 8.78125 35.445312 9.613281 C 35.433594 9.628906 35.433594 9.628906 35.421875 9.644531 C 34.398438 10.84375 34.398438 10.84375 33.421875 12.046875 C 34.765625 13.484375 34.765625 13.484375 36.359375 15.109375 C 36.78125 13.410156 36.78125 13.410156 37.234375 11.761719 C 37.011719 11.726562 36.878906 11.527344 36.910156 11.277344 C 36.957031 10.964844 37.242188 10.675781 37.546875 10.625 C 37.699219 10.601562 37.820312 10.652344 37.90625 10.738281 C 40.261719 8.835938 42.675781 7.058594 45.085938 5.433594 C 45.027344 5.367188 45.003906 5.285156 45.015625 5.195312 C 45.035156 5.058594 45.117188 4.9375 45.261719 4.839844 C 44.640625 4.1875 44.640625 4.1875 44.0625 3.578125 C 44.046875 3.585938 44.007812 3.59375 43.964844 3.601562 C 43.804688 3.621094 43.691406 3.542969 43.71875 3.433594 C 43.726562 3.328125 43.867188 3.226562 44.035156 3.207031 C 44.199219 3.1875 44.304688 3.261719 44.296875 3.367188 C 44.269531 3.421875 44.242188 3.46875 44.191406 3.507812 C 44.765625 4.117188 44.765625 4.117188 45.378906 4.773438 C 45.464844 4.734375 45.574219 4.703125 45.667969 4.699219 C 46.007812 4.675781 46.273438 4.859375 46.253906 5.109375 C 46.246094 5.15625 46.238281 5.203125 46.210938 5.246094 C 48.046875 5.78125 48.046875 5.78125 49.949219 6.390625 C 54.03125 6.171875 54.03125 6.171875 57.898438 6.179688 C 57.875 5.925781 58.097656 5.75 58.414062 5.792969 C 58.75 5.84375 59.03125 6.078125 59.082031 6.34375 C 59.09375 6.398438 59.089844 6.441406 59.070312 6.480469 C 62.015625 8.007812 62.015625 8.007812 64.777344 9.640625 C 65.320312 9.121094 65.320312 9.121094 65.8125 8.628906 C 65.785156 7.652344 65.785156 7.652344 65.730469 6.742188 C 65.554688 6.632812 65.394531 6.445312 65.339844 6.277344 C 65.265625 6.054688 65.398438 5.945312 65.617188 6.007812 C 65.851562 6.09375 66.097656 6.332031 66.171875 6.550781 C 66.242188 6.769531 66.121094 6.890625 65.898438 6.824219 C 65.878906 6.816406 65.855469 6.804688 65.835938 6.792969 C 65.886719 7.644531 65.886719 7.644531 65.917969 8.558594 C 67.46875 7.6875 67.46875 7.6875 68.652344 7.074219 C 68.640625 7.054688 68.628906 7.03125 68.617188 7.007812 C 68.582031 6.914062 68.609375 6.859375 68.699219 6.90625 C 68.792969 6.957031 68.890625 7.066406 68.929688 7.164062 C 68.964844 7.257812 68.9375 7.3125 68.847656 7.261719 C 68.816406 7.253906 68.777344 7.222656 68.726562 7.171875 C 67.5625 7.789062 67.5625 7.789062 66.035156 8.652344 C 67.617188 9.03125 67.617188 9.03125 69.003906 9.4375 C 68.9375 9.203125 69.027344 9.082031 69.203125 9.15625 C 69.382812 9.230469 69.59375 9.484375 69.664062 9.71875 C 69.75 9.972656 69.664062 10.113281 69.484375 10.039062 C 69.308594 9.957031 69.125 9.75 69.035156 9.53125 C 67.578125 9.121094 67.578125 9.121094 65.90625 8.738281 C 64.300781 10.320312 64.300781 10.320312 62.324219 12.269531 C 62.394531 12.359375 62.449219 12.480469 62.472656 12.605469 C 65.820312 13.28125 65.820312 13.28125 68.65625 14.027344 C 68.648438 13.78125 68.78125 13.625 68.976562 13.667969 C 69.175781 13.710938 69.375 13.96875 69.4375 14.242188 C 70.6875 14.632812 71.769531 14.996094 72.710938 15.386719 C 72.679688 15.148438 72.75 15.023438 72.863281 15.0625 C 72.945312 15.082031 73.035156 15.207031 73.101562 15.363281 C 73.429688 15.128906 73.429688 15.128906 73.722656 14.925781 C 73.714844 14.902344 73.710938 14.878906 73.703125 14.855469 C 73.671875 14.707031 73.691406 14.597656 73.75 14.628906 C 73.820312 14.683594 73.902344 14.839844 73.933594 14.988281 C 73.964844 15.136719 73.945312 15.246094 73.882812 15.214844 C 73.839844 15.175781 73.796875 15.113281 73.765625 15.042969 C 73.472656 15.242188 73.472656 15.242188 73.144531 15.476562 C 73.160156 15.523438 73.171875 15.570312 73.183594 15.640625 C 73.234375 15.902344 73.167969 16.070312 73.042969 16.035156 C 73.023438 16.015625 73.011719 16.019531 72.992188 16 C 72.945312 18.3125 72.945312 18.3125 72.726562 20.777344 C 72.824219 20.882812 72.894531 21.082031 72.902344 21.289062 C 72.90625 21.425781 72.886719 21.5625 72.84375 21.65625 C 73.714844 23.832031 73.714844 23.832031 74.324219 25.835938 C 74.359375 25.765625 74.398438 25.722656 74.433594 25.726562 C 74.488281 25.707031 74.53125 25.761719 74.554688 25.863281 C 75.226562 24.554688 75.226562 24.554688 75.71875 23.359375 C 75.714844 23.308594 75.710938 23.230469 75.710938 23.179688 C 75.714844 22.976562 75.753906 22.796875 75.800781 22.796875 C 75.84375 22.796875 75.878906 22.949219 75.875 23.183594 C 75.871094 23.386719 75.835938 23.566406 75.789062 23.566406 C 75.765625 23.566406 75.742188 23.511719 75.730469 23.4375 C 75.242188 24.632812 75.242188 24.632812 74.566406 25.964844 C 74.570312 25.992188 74.570312 26.039062 74.570312 26.089844 C 75.78125 25.472656 75.78125 25.472656 76.277344 24.972656 C 76.289062 24.84375 76.300781 24.765625 76.308594 24.738281 C 76.3125 24.738281 76.304688 24.84375 76.296875 24.972656 C 76.285156 25.105469 76.273438 25.207031 76.269531 25.207031 C 76.261719 25.234375 76.265625 25.15625 76.273438 25.050781 C 75.773438 25.578125 75.773438 25.578125 74.5625 26.1875 C 74.558594 26.238281 74.550781 26.285156 74.539062 26.335938 C 75.296875 27.585938 75.296875 27.585938 75.621094 28.523438 C 75.648438 28.421875 75.679688 28.324219 75.699219 28.300781 C 75.726562 28.253906 75.71875 28.382812 75.675781 28.589844 C 75.632812 28.796875 75.574219 28.996094 75.542969 29.042969 C 75.511719 29.089844 75.523438 28.957031 75.566406 28.753906 C 75.578125 28.703125 75.589844 28.652344 75.597656 28.625 C 75.277344 27.660156 75.277344 27.660156 74.511719 26.429688 C 74.46875 26.574219 74.402344 26.6875 74.34375 26.703125 C 74.289062 26.71875 74.242188 26.660156 74.222656 26.558594 C 70.402344 31.507812 70.402344 31.507812 64.378906 36.894531 C 64.375 36.945312 64.378906 36.980469 64.371094 37.027344 C 64.300781 37.300781 64.042969 37.558594 63.769531 37.621094 C 63.480469 37.691406 63.300781 37.523438 63.367188 37.242188 C 63.378906 37.199219 63.394531 37.15625 63.410156 37.113281 C 61.539062 35.886719 59.378906 34.425781 56.96875 32.726562 C 57.675781 35.832031 57.675781 35.832031 58.246094 38.554688 C 59.582031 39.171875 59.582031 39.171875 60.816406 39.710938 C 60.894531 39.644531 60.984375 39.597656 61.089844 39.574219 C 61.28125 39.539062 61.398438 39.640625 61.355469 39.796875 C 61.332031 39.945312 61.140625 40.105469 60.949219 40.144531 C 60.773438 40.171875 60.644531 40.078125 60.671875 39.929688 C 60.691406 39.882812 60.695312 39.851562 60.734375 39.804688 C 59.546875 39.296875 59.546875 39.296875 58.269531 38.714844 C 58.425781 40.265625 58.425781 40.265625 58.550781 41.636719 C 58.703125 41.613281 58.78125 41.691406 58.761719 41.792969 C 58.738281 41.902344 58.601562 42.003906 58.453125 42.027344 C 58.300781 42.050781 58.203125 41.980469 58.226562 41.875 C 58.238281 41.796875 58.320312 41.71875 58.410156 41.675781 C 58.289062 40.289062 58.289062 40.289062 58.128906 38.71875 C 56.472656 40.042969 56.472656 40.042969 54.847656 41.253906 C 54.878906 41.296875 54.890625 41.347656 54.886719 41.40625 C 54.882812 41.550781 54.695312 41.683594 54.480469 41.703125 C 54.265625 41.71875 54.105469 41.609375 54.113281 41.460938 C 54.136719 41.304688 54.320312 41.171875 54.53125 41.15625 C 54.625 41.148438 54.6875 41.164062 54.753906 41.191406 C 56.417969 39.945312 56.417969 39.945312 58.101562 38.589844 C 57.507812 35.8125 57.507812 35.8125 56.773438 32.632812 C 54.878906 33.074219 54.878906 33.074219 52.945312 33.488281 C 52.945312 33.527344 52.953125 33.5625 52.953125 33.597656 C 52.933594 34.121094 52.46875 34.546875 51.886719 34.5625 C 51.46875 34.566406 51.117188 34.347656 50.953125 34.019531 C 47.910156 34.980469 47.910156 34.980469 44.980469 35.808594 C 44.996094 35.851562 45.007812 35.898438 45.007812 35.941406 C 45.035156 36.261719 44.757812 36.5 44.398438 36.476562 C 44.035156 36.449219 43.734375 36.179688 43.707031 35.863281 C 43.6875 35.675781 43.765625 35.515625 43.910156 35.417969 C 40.910156 31.035156 40.910156 31.035156 38.066406 26.378906 C 38.054688 26.382812 38.039062 26.386719 38.019531 26.378906 C 37.804688 26.375 37.613281 26.242188 37.5 26.046875 C 35.886719 27.597656 35.886719 27.597656 34.433594 29.035156 C 34.496094 29.136719 34.539062 29.265625 34.550781 29.386719 C 34.578125 29.726562 34.375 29.96875 34.101562 29.941406 C 33.925781 29.921875 33.757812 29.78125 33.660156 29.609375 C 31.492188 30.707031 31.492188 30.707031 29.769531 31.585938 C 29.792969 31.648438 29.804688 31.691406 29.820312 31.757812 C 29.867188 32.03125 29.773438 32.222656 29.589844 32.15625 C 29.417969 32.109375 29.234375 31.84375 29.171875 31.550781 C 29.128906 31.34375 29.179688 31.203125 29.265625 31.144531 C 28.648438 29.289062 28.109375 27.410156 27.65625 25.515625 C 26.699219 24.472656 26.699219 24.472656 25.921875 23.535156 C 25.894531 23.65625 25.839844 23.757812 25.773438 23.734375 C 25.808594 25.816406 25.808594 25.816406 25.949219 27.8125 C 26.03125 27.871094 26.117188 28.082031 26.15625 28.324219 C 26.191406 28.570312 26.148438 28.757812 26.050781 28.707031 C 26.199219 29.722656 26.199219 29.722656 26.367188 30.6875 C 26.449219 30.765625 26.546875 30.96875 26.601562 31.191406 C 26.660156 31.433594 26.632812 31.578125 26.53125 31.507812 C 26.445312 31.460938 26.320312 31.210938 26.265625 30.988281 C 26.203125 30.742188 26.234375 30.601562 26.324219 30.652344 C 26.152344 29.683594 26.152344 29.683594 26.011719 28.6875 C 25.929688 28.605469 25.84375 28.398438 25.808594 28.175781 C 25.804688 28.148438 25.800781 28.125 25.796875 28.101562 C 25.144531 27.332031 25.144531 27.332031 24.644531 26.613281 C 24.652344 26.769531 24.632812 26.847656 24.597656 26.828125 C 24.578125 26.804688 24.554688 26.757812 24.53125 26.679688 C 24.476562 27.800781 24.476562 27.800781 24.578125 28.796875 C 24.59375 28.847656 24.609375 28.925781 24.628906 29 C 24.671875 29.179688 24.699219 29.308594 24.683594 29.257812 C 24.683594 29.257812 24.671875 29.207031 24.660156 29.183594 C 24.617188 29.003906 24.574219 28.824219 24.53125 28.644531 C 24.519531 28.566406 24.511719 28.542969 24.519531 28.566406 C 24.527344 28.59375 24.542969 28.644531 24.558594 28.71875 C 24.460938 27.722656 24.460938 27.722656 24.511719 26.605469 C 24.492188 26.53125 24.480469 26.453125 24.46875 26.351562 C 24.464844 26.324219 24.464844 26.324219 24.460938 26.296875 C 24.355469 26.105469 24.355469 26.105469 24.257812 25.90625 C 24.265625 26.035156 24.257812 26.117188 24.234375 26.09375 C 24.207031 26.070312 24.171875 25.890625 24.148438 25.683594 C 24.125 25.449219 24.128906 25.289062 24.15625 25.3125 C 24.183594 25.335938 24.222656 25.515625 24.246094 25.75 C 24.25 25.777344 24.25 25.777344 24.25 25.800781 C 24.347656 26 24.347656 26 24.453125 26.195312 C 24.449219 26.066406 24.464844 25.960938 24.5 25.980469 C 24.527344 26.003906 24.554688 26.078125 24.578125 26.152344 Z M 29.390625 31.140625 C 29.394531 31.140625 29.410156 31.160156 29.414062 31.15625 C 29.304688 28.214844 29.304688 28.214844 29.402344 25.03125 C 29.171875 24.929688 28.996094 24.5625 28.984375 24.160156 C 28.980469 24.011719 28.996094 23.882812 29.03125 23.777344 C 27.933594 22.515625 27.933594 22.515625 27.03125 21.371094 C 27.882812 26.214844 27.882812 26.214844 29.335938 31.140625 C 29.351562 31.132812 29.375 31.148438 29.390625 31.140625 Z M 29.492188 31.195312 C 29.578125 31.257812 29.652344 31.347656 29.714844 31.464844 C 31.433594 30.578125 31.433594 30.578125 33.59375 29.464844 C 33.574219 29.414062 33.558594 29.34375 33.550781 29.269531 C 33.542969 29.160156 33.554688 29.039062 33.589844 28.953125 C 31.625 26.84375 31.625 26.84375 29.925781 24.808594 C 29.832031 24.984375 29.691406 25.082031 29.539062 25.078125 C 29.519531 25.058594 29.5 25.0625 29.484375 25.0625 C 29.382812 28.238281 29.382812 28.238281 29.492188 31.195312 Z M 25.792969 28 C 25.792969 27.84375 25.839844 27.761719 25.90625 27.773438 C 25.765625 25.796875 25.765625 25.796875 25.734375 23.738281 C 25.695312 23.714844 25.660156 23.640625 25.636719 23.570312 C 24.988281 25.003906 24.988281 25.003906 24.601562 26.253906 C 24.613281 26.304688 24.625 26.382812 24.632812 26.457031 C 24.636719 26.484375 24.636719 26.507812 24.636719 26.507812 C 25.136719 27.230469 25.136719 27.230469 25.792969 28 Z M 25.761719 22.730469 C 25.816406 22.730469 25.863281 22.808594 25.898438 22.929688 C 26.359375 22.113281 26.359375 22.113281 26.890625 21.289062 C 25.5625 21.28125 25.5625 21.28125 24.671875 21.277344 C 24.671875 21.300781 24.667969 21.328125 24.664062 21.355469 C 25.070312 22.128906 25.070312 22.128906 25.613281 22.980469 C 25.644531 22.835938 25.699219 22.730469 25.761719 22.730469 Z M 25.925781 23.027344 C 25.941406 23.101562 25.949219 23.171875 25.949219 23.246094 C 25.949219 23.316406 25.945312 23.367188 25.941406 23.414062 C 26.695312 24.335938 26.695312 24.335938 27.617188 25.339844 C 27.234375 23.3125 27.234375 23.3125 26.964844 21.320312 C 26.40625 22.1875 26.40625 22.1875 25.925781 23.027344 Z M 72.609375 20.71875 C 72.628906 20.71875 72.648438 20.738281 72.664062 20.738281 C 72.882812 18.253906 72.882812 18.253906 72.933594 15.941406 C 72.847656 15.84375 72.765625 15.671875 72.722656 15.484375 C 71.269531 14.9375 71.269531 14.9375 69.453125 14.371094 C 69.46875 14.617188 69.347656 14.78125 69.167969 14.765625 C 69.359375 17.386719 69.425781 20.148438 69.347656 22.960938 C 69.539062 23.003906 69.695312 23.183594 69.785156 23.417969 C 71.1875 22.390625 71.1875 22.390625 72.367188 21.433594 C 72.359375 21.367188 72.351562 21.324219 72.351562 21.257812 C 72.339844 20.945312 72.457031 20.710938 72.609375 20.71875 Z M 72.796875 21.726562 C 72.757812 21.773438 72.714844 21.820312 72.667969 21.824219 C 72.605469 24.097656 72.605469 24.097656 72.433594 26.371094 C 72.546875 26.386719 72.617188 26.5625 72.621094 26.769531 C 73.484375 26.492188 73.484375 26.492188 74.210938 26.238281 C 74.222656 26.117188 74.25 26 74.289062 25.902344 C 73.671875 23.925781 73.671875 23.925781 72.796875 21.726562 Z M 72.601562 21.804688 C 72.519531 21.785156 72.445312 21.675781 72.402344 21.546875 C 71.222656 22.519531 71.222656 22.519531 69.820312 23.539062 C 69.84375 23.640625 69.855469 23.757812 69.855469 23.855469 C 69.847656 24.113281 69.773438 24.34375 69.65625 24.511719 C 70.371094 25.910156 70.371094 25.910156 70.988281 27.214844 C 71.539062 27.085938 71.539062 27.085938 72.054688 26.941406 C 72.082031 26.675781 72.21875 26.425781 72.363281 26.382812 C 72.539062 24.09375 72.539062 24.09375 72.601562 21.804688 Z M 74.207031 26.460938 C 74.203125 26.433594 74.203125 26.382812 74.203125 26.335938 C 73.480469 26.609375 73.480469 26.609375 72.613281 26.90625 C 72.582031 27.160156 72.445312 27.410156 72.308594 27.449219 C 72.15625 28.535156 72.15625 28.535156 71.984375 29.578125 C 73.210938 27.980469 73.210938 27.980469 74.207031 26.460938 Z M 63.980469 36.636719 C 64.097656 36.613281 64.183594 36.640625 64.253906 36.6875 C 67.90625 32.070312 67.90625 32.070312 70.863281 27.386719 C 67.746094 28.085938 67.746094 28.085938 63.78125 28.75 C 63.742188 29.179688 63.476562 29.550781 63.128906 29.703125 C 63.59375 33.4375 63.59375 33.4375 63.824219 36.699219 C 63.878906 36.671875 63.921875 36.660156 63.980469 36.636719 Z M 64.320312 36.75 C 64.335938 36.765625 64.347656 36.777344 64.347656 36.804688 C 68.574219 33.234375 68.574219 33.234375 71.878906 29.714844 C 71.457031 28.605469 71.457031 28.605469 70.953125 27.40625 C 67.988281 32.113281 67.988281 32.113281 64.320312 36.75 Z M 63.480469 36.992188 C 63.535156 36.910156 63.621094 36.824219 63.703125 36.769531 C 63.460938 33.503906 63.460938 33.503906 62.988281 29.761719 C 62.945312 29.769531 62.894531 29.777344 62.847656 29.785156 C 62.539062 29.808594 62.285156 29.648438 62.136719 29.40625 C 59.628906 30.980469 59.628906 30.980469 56.984375 32.539062 C 60.542969 35.035156 60.542969 35.035156 63.480469 36.992188 Z M 72.242188 27.460938 C 72.128906 27.4375 72.046875 27.28125 72.042969 27.078125 C 71.558594 27.203125 71.558594 27.203125 71.039062 27.335938 C 71.523438 28.484375 71.523438 28.484375 71.921875 29.558594 C 72.09375 28.519531 72.09375 28.519531 72.242188 27.460938 Z M 69.074219 14.742188 C 69.003906 14.703125 68.933594 14.644531 68.875 14.578125 C 67.609375 16.3125 67.609375 16.3125 66.066406 18.242188 C 66.183594 18.414062 66.261719 18.632812 66.277344 18.871094 C 66.289062 19.109375 66.226562 19.324219 66.117188 19.480469 C 67.5625 21.390625 67.5625 21.390625 68.847656 23.183594 C 68.957031 23.054688 69.097656 22.960938 69.25 22.960938 C 69.3125 18.742188 69.3125 18.742188 69.074219 14.742188 Z M 68.800781 14.480469 C 68.734375 14.375 68.6875 14.261719 68.671875 14.15625 C 65.832031 13.421875 65.832031 13.421875 62.480469 12.746094 C 62.472656 12.894531 62.402344 13.011719 62.300781 13.089844 C 63.75 15.492188 63.75 15.492188 65.097656 17.910156 C 65.199219 17.859375 65.316406 17.839844 65.441406 17.847656 C 65.644531 17.871094 65.828125 17.96875 65.976562 18.128906 C 67.519531 16.1875 67.519531 16.1875 68.800781 14.480469 Z M 37.976562 10.828125 C 38.027344 10.898438 38.039062 11.003906 38.023438 11.113281 C 38.019531 11.171875 37.992188 11.242188 37.976562 11.292969 C 40.144531 12.121094 40.144531 12.121094 42.523438 13.070312 C 42.707031 12.78125 43.042969 12.566406 43.414062 12.542969 C 43.441406 12.542969 43.472656 12.542969 43.503906 12.546875 C 44.464844 8.832031 44.464844 8.832031 45.414062 5.609375 C 45.320312 5.59375 45.234375 5.558594 45.164062 5.511719 C 41.527344 8.023438 41.527344 8.023438 37.976562 10.828125 Z M 37.898438 11.429688 C 37.773438 11.609375 37.589844 11.734375 37.390625 11.761719 C 37.371094 11.769531 37.371094 11.769531 37.363281 11.761719 C 36.902344 13.433594 36.902344 13.433594 36.480469 15.160156 C 39.300781 14.390625 39.300781 14.390625 42.355469 13.65625 C 42.359375 13.621094 42.363281 13.589844 42.359375 13.5625 C 42.367188 13.441406 42.394531 13.324219 42.449219 13.214844 C 40.0625 12.265625 40.0625 12.265625 37.898438 11.429688 Z M 46.140625 5.351562 C 46.097656 5.402344 46.054688 5.449219 45.992188 5.488281 C 48.40625 8.722656 48.40625 8.722656 51.128906 12.613281 C 51.230469 12.535156 51.351562 12.472656 51.480469 12.4375 C 50.640625 9.289062 50.640625 9.289062 49.867188 6.496094 C 47.972656 5.886719 47.972656 5.886719 46.140625 5.351562 Z M 45.859375 5.554688 C 45.777344 5.589844 45.675781 5.613281 45.585938 5.621094 C 45.582031 5.617188 45.566406 5.621094 45.546875 5.621094 C 44.613281 8.84375 44.613281 8.84375 43.65625 12.5625 C 44.070312 12.640625 44.367188 12.980469 44.375 13.40625 C 47.53125 13.386719 47.53125 13.386719 50.757812 13.441406 C 50.75 13.414062 50.75 13.390625 50.75 13.363281 C 50.75 13.117188 50.84375 12.894531 51.007812 12.722656 C 48.273438 8.808594 48.273438 8.808594 45.859375 5.554688 Z M 59.035156 6.582031 C 59 6.648438 58.929688 6.695312 58.851562 6.726562 C 60.273438 9.230469 60.273438 9.230469 61.679688 11.972656 C 61.726562 11.96875 61.777344 11.964844 61.835938 11.976562 C 61.96875 11.984375 62.105469 12.054688 62.214844 12.152344 C 63.542969 10.863281 63.542969 10.863281 64.710938 9.722656 C 61.964844 8.101562 61.964844 8.101562 59.035156 6.582031 Z M 58.714844 6.746094 C 58.671875 6.753906 58.628906 6.757812 58.570312 6.75 C 58.457031 6.734375 58.335938 6.691406 58.230469 6.625 C 55.59375 9.363281 55.59375 9.363281 52.535156 12.683594 C 52.699219 12.832031 52.816406 13.027344 52.851562 13.242188 C 57.265625 12.792969 57.265625 12.792969 61.308594 12.523438 C 61.3125 12.519531 61.3125 12.519531 61.304688 12.507812 C 61.28125 12.277344 61.386719 12.09375 61.5625 12.015625 C 60.144531 9.261719 60.144531 9.261719 58.714844 6.746094 Z M 58.109375 6.539062 C 58.042969 6.472656 57.980469 6.390625 57.941406 6.300781 C 54.074219 6.285156 54.074219 6.285156 50.03125 6.507812 C 50.804688 9.28125 50.804688 9.28125 51.644531 12.40625 C 51.699219 12.398438 51.742188 12.394531 51.792969 12.394531 C 52.027344 12.402344 52.238281 12.46875 52.40625 12.585938 C 55.472656 9.269531 55.472656 9.269531 58.109375 6.539062 Z M 28.332031 15.941406 C 28.347656 16.019531 28.359375 16.09375 28.347656 16.207031 C 29.828125 15.960938 29.828125 15.960938 31.617188 15.726562 C 31.710938 15.292969 32.015625 14.925781 32.351562 14.859375 C 32.378906 14.851562 32.402344 14.863281 32.429688 14.855469 C 32.828125 13.503906 32.828125 13.503906 33.25 12.195312 C 30.527344 14.121094 30.527344 14.121094 28.332031 15.941406 Z M 28.324219 16.34375 C 28.324219 16.34375 28.316406 16.367188 28.3125 16.386719 C 29.347656 16.757812 29.347656 16.757812 30.578125 17.179688 C 31.085938 16.699219 31.085938 16.699219 31.621094 16.210938 C 31.589844 16.117188 31.585938 15.988281 31.597656 15.867188 C 29.808594 16.089844 29.808594 16.089844 28.324219 16.34375 Z M 28.269531 16.515625 C 28.234375 16.601562 28.183594 16.683594 28.132812 16.738281 C 28.238281 17.722656 28.238281 17.722656 28.378906 18.730469 C 28.40625 18.714844 28.429688 18.71875 28.460938 18.703125 C 28.605469 18.683594 28.710938 18.839844 28.730469 19.0625 C 29.554688 18.199219 29.554688 18.199219 30.460938 17.292969 C 29.277344 16.875 29.277344 16.875 28.269531 16.515625 Z M 28.0625 16.8125 C 28.035156 16.832031 28.007812 16.847656 27.988281 16.84375 C 27.953125 16.855469 27.921875 16.847656 27.894531 16.839844 C 27.410156 18.949219 27.410156 18.949219 27.035156 21.089844 C 27.574219 20.402344 27.574219 20.402344 28.179688 19.6875 C 28.128906 19.589844 28.105469 19.449219 28.117188 19.292969 C 28.132812 19.09375 28.207031 18.902344 28.304688 18.808594 C 28.171875 17.777344 28.171875 17.777344 28.0625 16.8125 Z M 28.730469 19.214844 C 28.714844 19.433594 28.640625 19.621094 28.539062 19.714844 C 28.882812 21.503906 28.882812 21.503906 29.324219 23.34375 C 29.375 23.324219 29.429688 23.300781 29.488281 23.300781 C 29.546875 23.316406 29.605469 23.316406 29.660156 23.355469 C 30.453125 20.527344 30.453125 20.527344 31.445312 17.625 C 30.996094 17.484375 30.996094 17.484375 30.574219 17.324219 C 29.609375 18.277344 29.609375 18.277344 28.730469 19.214844 Z M 28.464844 19.792969 C 28.433594 19.8125 28.410156 19.808594 28.378906 19.824219 C 28.324219 19.816406 28.273438 19.8125 28.234375 19.761719 C 27.605469 20.496094 27.605469 20.496094 27.039062 21.207031 C 27.957031 22.378906 27.957031 22.378906 29.074219 23.648438 C 29.117188 23.539062 29.175781 23.453125 29.246094 23.410156 C 28.8125 21.542969 28.8125 21.542969 28.464844 19.792969 Z M 33.988281 28.710938 C 34.117188 28.71875 34.246094 28.796875 34.347656 28.921875 C 35.808594 27.464844 35.808594 27.464844 37.433594 25.898438 C 37.414062 25.835938 37.402344 25.773438 37.398438 25.71875 C 33.320312 25.03125 33.320312 25.03125 30.054688 24.371094 C 30.042969 24.496094 30.015625 24.617188 29.976562 24.703125 C 31.679688 26.734375 31.679688 26.734375 33.65625 28.851562 C 33.734375 28.75 33.855469 28.707031 33.988281 28.710938 Z M 37.980469 25.015625 C 38.296875 25.03125 38.558594 25.292969 38.605469 25.636719 C 40.265625 25.691406 40.265625 25.691406 41.996094 25.730469 C 40.414062 24.234375 40.414062 24.234375 38.902344 22.765625 C 38.832031 22.789062 38.757812 22.800781 38.683594 22.800781 C 38.621094 22.800781 38.5625 22.800781 38.507812 22.777344 C 38.238281 23.898438 38.238281 23.898438 37.980469 25.015625 Z M 38.609375 25.804688 C 38.585938 26.058594 38.433594 26.28125 38.214844 26.347656 C 41.050781 30.988281 41.050781 30.988281 44.035156 35.355469 C 44.125 35.328125 44.210938 35.308594 44.3125 35.320312 C 44.566406 35.332031 44.800781 35.476562 44.929688 35.679688 C 47.859375 34.84375 47.859375 34.84375 50.898438 33.882812 C 50.871094 33.800781 50.863281 33.71875 50.859375 33.632812 C 50.863281 33.566406 50.871094 33.503906 50.878906 33.445312 C 46.519531 29.792969 46.519531 29.792969 42.179688 25.898438 C 40.355469 25.855469 40.355469 25.855469 38.609375 25.804688 Z M 37.402344 25.558594 C 37.4375 25.300781 37.605469 25.097656 37.828125 25.03125 C 38.089844 23.890625 38.089844 23.890625 38.363281 22.726562 C 38.089844 22.617188 37.878906 22.359375 37.796875 22.046875 C 33.46875 23.148438 33.46875 23.148438 30.050781 24.109375 C 30.054688 24.128906 30.058594 24.167969 30.058594 24.210938 C 30.058594 24.230469 30.058594 24.230469 30.058594 24.230469 C 33.324219 24.875 33.324219 24.875 37.402344 25.558594 Z M 66.035156 19.597656 C 65.90625 19.71875 65.734375 19.800781 65.542969 19.792969 C 65.234375 19.773438 64.957031 19.550781 64.808594 19.242188 C 62.414062 20.382812 62.414062 20.382812 59.773438 21.609375 C 64.652344 22.699219 64.652344 22.699219 68.632812 23.640625 C 68.660156 23.511719 68.707031 23.382812 68.773438 23.273438 C 67.484375 21.484375 67.484375 21.484375 66.035156 19.597656 Z M 64.746094 19.085938 C 64.714844 18.984375 64.695312 18.882812 64.691406 18.773438 C 64.671875 18.433594 64.792969 18.15625 64.996094 17.992188 C 63.636719 15.550781 63.636719 15.550781 62.191406 13.15625 C 62.121094 13.175781 62.046875 13.195312 61.964844 13.183594 C 61.691406 13.152344 61.4375 12.933594 61.347656 12.671875 C 57.292969 12.945312 57.292969 12.945312 52.867188 13.398438 C 52.867188 13.667969 52.757812 13.90625 52.570312 14.082031 C 54.941406 16.519531 57.277344 19.023438 59.527344 21.542969 C 62.269531 20.257812 62.269531 20.257812 64.746094 19.085938 Z M 69.582031 24.625 C 69.480469 24.730469 69.355469 24.796875 69.222656 24.800781 C 69.007812 24.816406 68.820312 24.664062 68.710938 24.429688 C 66.394531 26.320312 66.394531 26.320312 63.722656 28.324219 C 63.757812 28.402344 63.773438 28.507812 63.78125 28.605469 C 67.761719 27.9375 67.761719 27.9375 70.882812 27.257812 C 70.28125 25.960938 70.28125 25.960938 69.582031 24.625 Z M 68.660156 24.3125 C 68.621094 24.179688 68.601562 24.046875 68.605469 23.898438 C 68.605469 23.863281 68.605469 23.824219 68.609375 23.789062 C 64.542969 22.828125 64.542969 22.828125 59.546875 21.730469 C 58.59375 23.347656 58.59375 23.347656 57.609375 24.992188 C 57.855469 25.1875 58.011719 25.496094 58.007812 25.84375 C 58.003906 26.015625 57.960938 26.183594 57.886719 26.328125 C 60.105469 27.378906 60.105469 27.378906 62.171875 28.367188 C 62.339844 28.0625 62.644531 27.839844 62.96875 27.824219 C 63.269531 27.804688 63.523438 27.949219 63.664062 28.191406 C 66.339844 26.191406 66.339844 26.191406 68.660156 24.3125 Z M 62.082031 29.265625 C 62.035156 29.148438 62.015625 29.015625 62.023438 28.871094 C 62.03125 28.742188 62.058594 28.621094 62.105469 28.511719 C 60.027344 27.527344 60.027344 27.527344 57.800781 26.472656 C 57.609375 26.738281 57.304688 26.914062 56.960938 26.929688 C 56.785156 26.933594 56.625 26.886719 56.484375 26.816406 C 54.515625 29.894531 54.515625 29.894531 52.539062 32.839844 C 52.722656 32.960938 52.855469 33.136719 52.917969 33.339844 C 54.882812 32.917969 54.882812 32.917969 56.820312 32.464844 C 59.511719 30.882812 59.511719 30.882812 62.082031 29.265625 Z M 51.917969 32.65625 C 52.101562 32.652344 52.265625 32.691406 52.40625 32.757812 C 54.378906 29.808594 54.378906 29.808594 56.347656 26.726562 C 56.113281 26.554688 55.957031 26.277344 55.933594 25.964844 C 51.421875 25.992188 46.847656 25.972656 42.425781 25.90625 C 46.675781 29.710938 46.675781 29.710938 50.929688 33.285156 C 51.085938 32.921875 51.472656 32.660156 51.917969 32.65625 Z M 32.53125 14.855469 C 32.78125 14.925781 32.949219 15.1875 32.925781 15.566406 C 34.496094 15.378906 34.496094 15.378906 36.226562 15.199219 C 34.675781 13.597656 34.675781 13.597656 33.351562 12.191406 C 32.925781 13.511719 32.925781 13.511719 32.53125 14.855469 Z M 32.902344 15.71875 C 32.878906 15.867188 32.828125 16.007812 32.75 16.136719 C 34.074219 17.4375 34.074219 17.4375 35.574219 18.84375 C 35.917969 17.085938 35.917969 17.085938 36.308594 15.332031 C 34.53125 15.511719 34.53125 15.511719 32.902344 15.71875 Z M 32.667969 16.265625 C 32.527344 16.453125 32.339844 16.585938 32.144531 16.617188 C 32.070312 16.632812 32.003906 16.628906 31.941406 16.609375 C 31.757812 17.074219 31.757812 17.074219 31.585938 17.527344 C 33.320312 18.125 33.320312 18.125 35.296875 18.800781 C 33.90625 17.472656 33.90625 17.472656 32.667969 16.265625 Z M 31.855469 16.558594 C 31.769531 16.511719 31.703125 16.425781 31.65625 16.328125 C 31.164062 16.765625 31.164062 16.765625 30.683594 17.230469 C 31.082031 17.363281 31.082031 17.363281 31.492188 17.5 C 31.671875 17.027344 31.671875 17.027344 31.855469 16.558594 Z M 44.359375 13.566406 C 44.285156 14.0625 43.832031 14.472656 43.308594 14.492188 C 42.980469 14.507812 42.699219 14.371094 42.53125 14.144531 C 40.410156 15.597656 40.410156 15.597656 38.371094 17.066406 C 40.382812 18.03125 40.382812 18.03125 42.542969 19.050781 C 46.703125 16.40625 46.703125 16.40625 50.90625 13.882812 C 50.851562 13.796875 50.8125 13.699219 50.78125 13.597656 C 47.535156 13.542969 47.535156 13.542969 44.359375 13.566406 Z M 42.453125 14.019531 C 42.421875 13.949219 42.390625 13.878906 42.375 13.804688 C 39.34375 14.523438 39.34375 14.523438 36.53125 15.292969 C 37.355469 16.125 37.355469 16.125 38.234375 16.984375 C 40.296875 15.5 40.296875 15.5 42.453125 14.019531 Z M 52.449219 14.1875 C 52.351562 14.253906 52.238281 14.308594 52.113281 14.339844 C 54.425781 19.527344 54.425781 19.527344 56.660156 24.855469 C 56.765625 24.816406 56.878906 24.789062 56.996094 24.789062 C 57.164062 24.792969 57.328125 24.832031 57.46875 24.90625 C 58.457031 23.261719 58.457031 23.261719 59.410156 21.652344 C 55.992188 17.875 55.992188 17.875 52.449219 14.1875 Z M 51.945312 14.371094 C 51.902344 14.371094 51.867188 14.375 51.824219 14.375 C 51.496094 14.371094 51.203125 14.230469 51.007812 14.015625 C 46.839844 16.511719 46.839844 16.511719 42.714844 19.128906 C 49.320312 22.265625 49.320312 22.265625 56.027344 25.445312 C 56.125 25.222656 56.296875 25.035156 56.507812 24.917969 C 54.261719 19.578125 54.261719 19.578125 51.945312 14.371094 Z M 55.9375 25.792969 C 55.945312 25.730469 55.957031 25.664062 55.972656 25.605469 C 49.203125 22.398438 49.203125 22.398438 42.554688 19.234375 C 41.019531 20.253906 41.019531 20.253906 39.535156 21.261719 C 39.601562 21.398438 39.640625 21.5625 39.636719 21.742188 C 39.632812 22.164062 39.398438 22.539062 39.066406 22.699219 C 40.617188 24.203125 40.617188 24.203125 42.234375 25.730469 C 49.03125 25.816406 49.03125 25.816406 55.9375 25.792969 Z M 38.703125 20.707031 C 39.011719 20.707031 39.289062 20.859375 39.457031 21.117188 C 40.894531 20.136719 40.894531 20.136719 42.378906 19.152344 C 40.230469 18.136719 40.230469 18.136719 38.21875 17.183594 C 36.945312 18.082031 36.945312 18.082031 35.726562 18.992188 C 36.835938 20 36.835938 20 38.015625 21.054688 C 38.1875 20.847656 38.429688 20.71875 38.703125 20.707031 Z M 37.769531 21.882812 C 37.765625 21.847656 37.765625 21.796875 37.765625 21.757812 C 37.765625 21.546875 37.824219 21.355469 37.925781 21.179688 C 36.726562 20.117188 36.726562 20.117188 35.605469 19.082031 C 32.496094 21.558594 32.496094 21.558594 29.988281 23.8125 C 30.003906 23.851562 30.019531 23.910156 30.03125 23.96875 C 33.445312 22.996094 33.445312 22.996094 37.769531 21.882812 Z M 29.742188 23.414062 C 29.820312 23.472656 29.886719 23.574219 29.941406 23.691406 C 32.410156 21.445312 32.410156 21.445312 35.457031 19.015625 C 33.359375 18.300781 33.359375 18.300781 31.53125 17.671875 C 30.542969 20.554688 30.542969 20.554688 29.742188 23.414062 Z M 36.425781 15.398438 C 36.046875 17.101562 36.046875 17.101562 35.707031 18.832031 C 36.882812 17.953125 36.882812 17.953125 38.101562 17.082031 C 37.238281 16.226562 37.238281 16.226562 36.425781 15.398438 Z M 36.425781 15.398438 " fill-opacity="1" fill-rule="nonzero"/></g><g fill="#1893f8" fill-opacity="1"><g transform="translate(33.445846, 31.410229)"><g><path d="M 14.046875 0 L 13.28125 -3.671875 L 7.390625 -3.671875 L 6.578125 0 L 0 0 L 6.3125 -24.578125 L 14.46875 -24.578125 L 20.78125 0 Z M 8.421875 -8.421875 L 12.25 -8.421875 L 10.375 -17.265625 Z M 8.421875 -8.421875 "/></g></g></g><g fill="#1893f8" fill-opacity="1"><g transform="translate(57.220277, 31.410229)"><g><path d="M 1.53125 -24.578125 L 8.234375 -24.578125 L 8.234375 0 L 1.53125 0 Z M 1.53125 -24.578125 "/></g></g></g></svg>