<svg xmlns="http://www.w3.org/2000/svg" xmlns:xlink="http://www.w3.org/1999/xlink" width="300" zoomAndPan="magnify" viewBox="0 0 224.87999 225" height="300" preserveAspectRatio="xMidYMid meet" version="1.0"><defs><clipPath id="6ca880d846"><path d="M 28.117188 32.617188 L 196.753906 32.617188 L 196.753906 224.9375 L 28.117188 224.9375 Z M 28.117188 32.617188 " clip-rule="nonzero"/></clipPath><clipPath id="6bdd5ba869"><path d="M 72 0.0585938 L 153 0.0585938 L 153 44 L 72 44 Z M 72 0.0585938 " clip-rule="nonzero"/></clipPath><clipPath id="35531aee9c"><path d="M 66.738281 43 L 158.191406 43 L 158.191406 57 L 66.738281 57 Z M 66.738281 43 " clip-rule="nonzero"/></clipPath><clipPath id="e9440c3c42"><path d="M 66.738281 44 L 158.191406 44 L 158.191406 57 L 66.738281 57 Z M 66.738281 44 " clip-rule="nonzero"/></clipPath><clipPath id="b86b3a759b"><path d="M 102 0.0585938 L 123 0.0585938 L 123 31 L 102 31 Z M 102 0.0585938 " clip-rule="nonzero"/></clipPath><clipPath id="62b26f6735"><path d="M 152 72 L 158.191406 72 L 158.191406 87 L 152 87 Z M 152 72 " clip-rule="nonzero"/></clipPath><clipPath id="718da9cc19"><path d="M 66.738281 72 L 73 72 L 73 87 L 66.738281 87 Z M 66.738281 72 " clip-rule="nonzero"/></clipPath></defs><g clip-path="url(#6ca880d846)"><path fill="#1893f8" d="M 196.585938 57.777344 C 197.894531 92.761719 191.636719 124.121094 177.804688 151.859375 C 176.941406 153.667969 176.046875 155.464844 175.121094 157.242188 C 168.265625 170.449219 159.925781 182.574219 150.371094 193.324219 C 140.816406 204.074219 130.039062 213.453125 118.300781 221.164062 L 112.84375 224.75 C 112.558594 224.945312 112.175781 224.960938 111.871094 224.757812 L 106.402344 221.164062 C 94.664062 213.453125 83.882812 204.074219 74.328125 193.324219 C 64.773438 182.574219 56.4375 170.449219 49.582031 157.242188 C 42.5625 143.726562 37.199219 129.226562 33.585938 114.160156 C 29.976562 99.097656 28.117188 83.484375 28.117188 67.738281 L 28.117188 57.777344 C 28.117188 57.289062 28.511719 56.898438 28.996094 56.898438 L 38.957031 56.898438 C 50.808594 56.898438 62.558594 55.125 73.898438 51.679688 C 85.246094 48.226562 96.183594 43.097656 106.402344 36.386719 L 111.859375 32.800781 C 112.144531 32.609375 112.527344 32.59375 112.832031 32.792969 L 118.300781 36.386719 C 128.519531 43.097656 139.460938 48.226562 150.808594 51.679688 C 162.144531 55.125 173.898438 56.898438 185.75 56.898438 L 195.710938 56.898438 C 196.195312 56.898438 196.585938 57.289062 196.585938 57.777344 Z M 130.164062 155.929688 C 130.300781 153.496094 126.390625 131.652344 125.476562 126.375 C 125.3125 125.441406 124.671875 122.25 124.738281 121.574219 C 124.875 120.191406 133.335938 111.753906 126.4375 99.859375 C 125.996094 99.101562 126.058594 99.183594 125.859375 99.03125 C 122.679688 94.480469 117.433594 91.488281 111.476562 91.417969 L 111.476562 82.613281 L 111.480469 82.613281 C 111.480469 82.445312 111.527344 82.273438 111.632812 82.121094 C 111.90625 81.722656 112.449219 81.621094 112.847656 81.890625 C 112.875 81.910156 121.816406 88.417969 163.050781 77.742188 C 154.058594 76.710938 146.351562 74.730469 138.882812 71.835938 C 130.25 68.492188 121.953125 63.9375 112.355469 58.214844 C 102.6875 63.945312 92.515625 68.507812 82.023438 71.851562 C 71.632812 75.160156 60.933594 77.273438 50.105469 78.136719 C 51.546875 102.65625 58.050781 126.164062 68.71875 146.882812 C 79.226562 167.28125 93.765625 184.972656 111.480469 198.253906 L 111.480469 155.953125 Z M 130.164062 155.929688 " fill-opacity="1" fill-rule="evenodd"/></g><path fill="#56aeff" d="M 111.476562 91.414062 L 111.476562 155.953125 L 92.792969 155.976562 C 92.59375 152.488281 96.683594 132.378906 97.554688 126.023438 C 97.699219 124.96875 98.378906 122.097656 98.203125 121.320312 C 95.253906 118.144531 93.453125 113.890625 93.453125 109.214844 C 93.453125 99.378906 101.421875 91.410156 111.257812 91.410156 C 111.328125 91.410156 111.402344 91.410156 111.476562 91.410156 Z M 111.476562 91.414062 " fill-opacity="1" fill-rule="evenodd"/><g clip-path="url(#6bdd5ba869)"><path fill="#ffa91a" d="M 152.730469 43.996094 L 72.199219 43.996094 L 72.199219 41.214844 C 72.199219 18.984375 90.226562 0.960938 112.464844 0.960938 C 134.703125 0.960938 152.730469 18.984375 152.730469 41.214844 Z M 152.730469 43.996094 " fill-opacity="1" fill-rule="nonzero"/></g><path fill="#f79219" d="M 136.375 8.828125 C 141.316406 15.515625 144.246094 23.78125 144.246094 32.730469 L 144.246094 35.511719 L 72.609375 35.511719 C 72.34375 37.375 72.199219 39.28125 72.199219 41.214844 L 72.199219 43.996094 L 152.730469 43.996094 L 152.730469 41.214844 C 152.730469 27.933594 146.296875 16.160156 136.375 8.828125 Z M 136.375 8.828125 " fill-opacity="1" fill-rule="nonzero"/><g clip-path="url(#35531aee9c)"><path fill="#ffa91a" d="M 154.710938 56.320312 L 70.21875 56.320312 C 68.34375 56.320312 66.824219 54.800781 66.824219 52.925781 L 66.824219 47.390625 C 66.824219 45.515625 68.34375 43.996094 70.21875 43.996094 L 154.710938 43.996094 C 156.585938 43.996094 158.105469 45.515625 158.105469 47.390625 L 158.105469 52.925781 C 158.105469 54.800781 156.585938 56.320312 154.710938 56.320312 Z M 154.710938 56.320312 " fill-opacity="1" fill-rule="nonzero"/><path fill="#f79219" d="M 154.710938 43.996094 L 153.273438 43.996094 L 153.273438 48.097656 C 153.273438 49.972656 151.753906 51.492188 149.878906 51.492188 L 66.824219 51.492188 L 66.824219 52.925781 C 66.824219 54.800781 68.34375 56.320312 70.21875 56.320312 L 154.710938 56.320312 C 156.585938 56.320312 158.105469 54.800781 158.105469 52.925781 L 158.105469 47.390625 C 158.105469 45.515625 156.585938 43.996094 154.710938 43.996094 Z M 154.710938 43.996094 " fill-opacity="1" fill-rule="nonzero"/></g><g clip-path="url(#e9440c3c42)"><path fill="#ef7816" d="M 155.574219 44.113281 C 155.648438 44.386719 155.691406 44.675781 155.691406 44.976562 L 155.691406 50.511719 C 155.691406 52.386719 154.171875 53.90625 152.296875 53.90625 L 67.800781 53.90625 C 67.503906 53.90625 67.214844 53.863281 66.9375 53.789062 C 67.320312 55.246094 68.640625 56.320312 70.21875 56.320312 L 154.710938 56.320312 C 156.585938 56.320312 158.105469 54.800781 158.105469 52.925781 L 158.105469 47.390625 C 158.105469 45.816406 157.03125 44.496094 155.574219 44.113281 Z M 155.574219 44.113281 " fill-opacity="1" fill-rule="nonzero"/></g><g clip-path="url(#b86b3a759b)"><path fill="#f79219" d="M 102.054688 28.210938 L 102.054688 -2.59375 C 102.054688 -4.128906 103.300781 -5.375 104.839844 -5.375 L 120.089844 -5.375 C 121.625 -5.375 122.875 -4.128906 122.875 -2.59375 L 122.875 28.210938 C 122.875 29.75 121.625 30.996094 120.089844 30.996094 L 104.839844 30.996094 C 103.300781 30.996094 102.054688 29.75 102.054688 28.210938 Z M 102.054688 28.210938 " fill-opacity="1" fill-rule="nonzero"/><path fill="#ef7816" d="M 120.433594 -5.351562 C 120.449219 -5.238281 120.457031 -5.125 120.457031 -5.007812 L 120.457031 25.796875 C 120.457031 27.335938 119.210938 28.582031 117.671875 28.582031 L 102.425781 28.582031 C 102.308594 28.582031 102.191406 28.570312 102.078125 28.558594 C 102.25 29.933594 103.417969 30.996094 104.839844 30.996094 L 120.089844 30.996094 C 121.625 30.996094 122.875 29.75 122.875 28.210938 L 122.875 -2.59375 C 122.875 -4.011719 121.808594 -5.183594 120.433594 -5.351562 Z M 120.433594 -5.351562 " fill-opacity="1" fill-rule="nonzero"/></g><path fill="#f79219" d="M 80.359375 43.996094 L 80.359375 33.925781 C 80.359375 33.074219 81.050781 32.386719 81.902344 32.386719 L 91.148438 32.386719 C 91.996094 32.386719 92.6875 33.074219 92.6875 33.925781 L 92.6875 43.996094 Z M 80.359375 43.996094 " fill-opacity="1" fill-rule="nonzero"/><path fill="#ef7816" d="M 91.148438 32.386719 L 90.273438 32.386719 L 90.273438 41.582031 L 80.359375 41.582031 L 80.359375 43.996094 L 92.6875 43.996094 L 92.6875 33.925781 C 92.6875 33.074219 91.996094 32.386719 91.148438 32.386719 Z M 91.148438 32.386719 " fill-opacity="1" fill-rule="nonzero"/><path fill="#f79219" d="M 132.492188 43.996094 L 132.492188 33.925781 C 132.492188 33.074219 133.183594 32.386719 134.035156 32.386719 L 143.277344 32.386719 C 144.128906 32.386719 144.820312 33.074219 144.820312 33.925781 L 144.820312 43.996094 Z M 132.492188 43.996094 " fill-opacity="1" fill-rule="nonzero"/><path fill="#ef7816" d="M 143.277344 32.386719 L 142.402344 32.386719 L 142.402344 41.582031 L 132.492188 41.582031 L 132.492188 43.996094 L 144.820312 43.996094 L 144.820312 33.925781 C 144.820312 33.074219 144.128906 32.386719 143.277344 32.386719 Z M 143.277344 32.386719 " fill-opacity="1" fill-rule="nonzero"/><path fill="#808285" d="M 85.523438 61.472656 C 76.839844 62.421875 70.621094 70.308594 71.734375 78.972656 L 73.160156 90.09375 C 73.890625 95.796875 79.484375 99.546875 85.039062 98.0625 L 98.453125 94.476562 C 103.226562 93.199219 106.730469 89.136719 107.296875 84.234375 L 108.03125 77.855469 C 108.28125 75.71875 109.957031 73.949219 112.101562 73.777344 C 114.515625 73.585938 116.605469 75.335938 116.878906 77.695312 L 117.632812 84.234375 C 118.199219 89.136719 121.703125 93.199219 126.476562 94.476562 L 139.890625 98.0625 C 145.445312 99.550781 151.039062 95.796875 151.769531 90.09375 L 153.195312 78.972656 C 154.308594 70.308594 148.089844 62.421875 139.40625 61.472656 C 121.5 59.519531 103.429688 59.519531 85.523438 61.472656 Z M 85.523438 61.472656 " fill-opacity="1" fill-rule="nonzero"/><g clip-path="url(#62b26f6735)"><path fill="#808285" d="M 156.175781 72.320312 L 152.605469 72.320312 C 153.261719 74.402344 153.492188 76.660156 153.195312 78.972656 L 152.238281 86.441406 L 156.175781 86.441406 C 157.242188 86.441406 158.105469 85.578125 158.105469 84.511719 L 158.105469 74.25 C 158.105469 73.183594 157.242188 72.320312 156.175781 72.320312 Z M 156.175781 72.320312 " fill-opacity="1" fill-rule="nonzero"/><path fill="#58595b" d="M 156.175781 72.320312 L 155.691406 72.320312 L 155.691406 82.097656 C 155.691406 83.164062 154.824219 84.027344 153.757812 84.027344 L 152.546875 84.027344 L 152.238281 86.441406 L 156.175781 86.441406 C 157.242188 86.441406 158.105469 85.578125 158.105469 84.511719 L 158.105469 74.25 C 158.105469 73.183594 157.242188 72.320312 156.175781 72.320312 Z M 156.175781 72.320312 " fill-opacity="1" fill-rule="nonzero"/></g><g clip-path="url(#718da9cc19)"><path fill="#808285" d="M 71.734375 78.972656 C 71.4375 76.660156 71.667969 74.402344 72.324219 72.320312 L 68.753906 72.320312 C 67.6875 72.320312 66.824219 73.183594 66.824219 74.25 L 66.824219 84.511719 C 66.824219 85.578125 67.6875 86.441406 68.753906 86.441406 L 72.691406 86.441406 Z M 71.734375 78.972656 " fill-opacity="1" fill-rule="nonzero"/><path fill="#58595b" d="M 71.734375 78.972656 C 71.4375 76.660156 71.667969 74.402344 72.324219 72.320312 L 69.355469 72.320312 C 69.152344 73.691406 69.132812 75.113281 69.316406 76.558594 L 70.277344 84.027344 L 66.824219 84.027344 L 66.824219 84.511719 C 66.824219 85.578125 67.6875 86.441406 68.753906 86.441406 L 72.691406 86.441406 Z M 71.734375 78.972656 " fill-opacity="1" fill-rule="nonzero"/></g><path fill="#58595b" d="M 147.472656 64.808594 C 150.027344 67.996094 151.34375 72.175781 150.78125 76.558594 L 149.355469 87.679688 C 148.621094 93.382812 143.03125 97.132812 137.472656 95.648438 L 124.058594 92.058594 C 122.546875 91.65625 121.160156 90.96875 119.957031 90.066406 C 121.539062 92.179688 123.808594 93.761719 126.476562 94.476562 L 139.890625 98.0625 C 145.445312 99.546875 151.039062 95.796875 151.769531 90.09375 L 153.195312 78.972656 C 153.914062 73.371094 151.566406 68.097656 147.472656 64.808594 Z M 147.472656 64.808594 " fill-opacity="1" fill-rule="nonzero"/><path fill="#e6e7e8" d="M 121.917969 77.113281 L 122.671875 83.652344 C 123 86.507812 125.007812 88.832031 127.785156 89.578125 L 141.199219 93.164062 C 142.453125 93.5 143.734375 93.285156 144.8125 92.5625 C 145.890625 91.839844 146.574219 90.734375 146.738281 89.449219 L 148.164062 78.328125 C 148.527344 75.5 147.753906 72.707031 145.992188 70.46875 C 144.226562 68.226562 141.691406 66.824219 138.855469 66.515625 C 121.34375 64.601562 103.585938 64.601562 86.074219 66.515625 C 83.238281 66.824219 80.707031 68.226562 78.941406 70.46875 C 77.175781 72.707031 76.402344 75.5 76.765625 78.328125 L 78.191406 89.449219 C 78.355469 90.734375 79.039062 91.839844 80.117188 92.5625 C 81.195312 93.285156 82.476562 93.5 83.730469 93.164062 L 97.144531 89.574219 C 99.921875 88.832031 101.929688 86.507812 102.257812 83.652344 L 102.996094 77.273438 C 103.523438 72.679688 107.183594 69.082031 111.699219 68.722656 C 111.960938 68.703125 112.222656 68.691406 112.476562 68.691406 C 117.285156 68.691406 121.355469 72.257812 121.917969 77.113281 Z M 121.917969 77.113281 " fill-opacity="1" fill-rule="nonzero"/><path fill="#ffffff" d="M 81.0625 90.046875 C 80.582031 90.046875 80.167969 89.683594 80.105469 89.203125 C 80.074219 88.949219 80.144531 88.699219 80.300781 88.488281 C 80.460938 88.289062 80.6875 88.15625 80.941406 88.121094 C 81.464844 88.058594 81.957031 88.4375 82.023438 88.957031 C 82.09375 89.484375 81.714844 89.972656 81.1875 90.039062 C 81.144531 90.046875 81.105469 90.046875 81.0625 90.046875 Z M 80.570312 86.214844 C 80.085938 86.214844 79.675781 85.851562 79.613281 85.371094 L 78.679688 78.082031 C 78.632812 77.71875 78.609375 77.347656 78.609375 76.972656 C 78.609375 75.03125 79.246094 73.195312 80.453125 71.664062 C 81.898438 69.832031 83.96875 68.683594 86.28125 68.433594 C 90.1875 68.007812 94.179688 67.675781 98.140625 67.4375 C 98.667969 67.410156 99.132812 67.816406 99.160156 68.347656 C 99.195312 68.878906 98.785156 69.335938 98.253906 69.367188 C 94.328125 69.597656 90.371094 69.929688 86.492188 70.355469 C 84.695312 70.554688 83.09375 71.441406 81.976562 72.855469 C 81.039062 74.050781 80.542969 75.46875 80.542969 76.972656 C 80.542969 77.25 80.5625 77.546875 80.597656 77.835938 L 81.53125 85.117188 L 81.53125 85.125 C 81.597656 85.65625 81.226562 86.136719 80.695312 86.207031 C 80.65625 86.210938 80.613281 86.214844 80.570312 86.214844 Z M 80.570312 86.214844 " fill-opacity="1" fill-rule="nonzero"/><path fill="#d1d3d4" d="M 145.988281 70.46875 C 144.992188 69.203125 143.75 68.21875 142.347656 67.535156 C 143.25 69.367188 143.597656 71.421875 143.332031 73.5 L 141.90625 84.621094 C 141.742188 85.90625 141.058594 87.011719 139.980469 87.734375 C 138.902344 88.457031 137.621094 88.667969 136.367188 88.335938 L 122.953125 84.746094 C 122.929688 84.742188 122.902344 84.730469 122.878906 84.722656 C 123.527344 87.078125 125.363281 88.929688 127.785156 89.578125 L 141.199219 93.164062 C 142.453125 93.5 143.734375 93.285156 144.8125 92.5625 C 145.890625 91.839844 146.574219 90.734375 146.738281 89.449219 L 148.164062 78.328125 C 148.527344 75.5 147.753906 72.707031 145.988281 70.46875 Z M 145.988281 70.46875 " fill-opacity="1" fill-rule="nonzero"/></svg>