<svg xmlns="http://www.w3.org/2000/svg" xmlns:xlink="http://www.w3.org/1999/xlink" width="300" zoomAndPan="magnify" viewBox="0 0 224.87999 225" height="300" preserveAspectRatio="xMidYMid meet" version="1.0"><defs><clipPath id="ba80b90dfd"><path d="M 13.878906 0.0585938 L 210.988281 0.0585938 L 210.988281 224.9375 L 13.878906 224.9375 Z M 13.878906 0.0585938 " clip-rule="nonzero"/></clipPath></defs><g clip-path="url(#ba80b90dfd)"><path fill="#1893f8" d="M 210.824219 29.484375 C 212.355469 70.390625 205.039062 107.054688 188.867188 139.492188 C 187.855469 141.605469 186.808594 143.707031 185.730469 145.785156 C 177.714844 161.226562 167.960938 175.40625 156.789062 187.972656 C 145.617188 200.542969 133.015625 211.507812 119.289062 220.523438 L 112.910156 224.71875 C 112.578125 224.945312 112.128906 224.964844 111.773438 224.730469 L 105.378906 220.523438 C 91.652344 211.511719 79.050781 200.542969 67.878906 187.972656 C 56.707031 175.40625 46.957031 161.226562 38.9375 145.785156 C 30.730469 129.980469 24.460938 113.023438 20.238281 95.410156 C 16.015625 77.796875 13.84375 59.539062 13.84375 41.132812 L 13.84375 29.480469 C 13.84375 28.914062 14.300781 28.457031 14.871094 28.457031 L 26.515625 28.457031 C 40.375 28.457031 54.117188 26.382812 67.375 22.355469 C 80.640625 18.316406 93.433594 12.320312 105.378906 4.472656 L 111.761719 0.28125 C 112.09375 0.0546875 112.539062 0.0351562 112.898438 0.269531 L 119.292969 4.472656 C 131.238281 12.320312 144.03125 18.316406 157.300781 22.355469 C 170.558594 26.382812 184.296875 28.457031 198.15625 28.457031 L 209.804688 28.457031 C 210.371094 28.457031 210.828125 28.914062 210.828125 29.480469 Z M 133.160156 144.25 C 133.324219 141.402344 128.75 115.863281 127.679688 109.691406 C 127.492188 108.597656 126.738281 104.871094 126.820312 104.082031 C 126.980469 102.460938 136.871094 92.597656 128.804688 78.6875 C 128.289062 77.804688 128.363281 77.898438 128.128906 77.71875 C 124.414062 72.398438 118.277344 68.898438 111.3125 68.816406 L 111.3125 58.523438 L 111.316406 58.523438 C 111.316406 58.324219 111.371094 58.125 111.496094 57.945312 C 111.8125 57.480469 112.449219 57.363281 112.914062 57.679688 C 112.949219 57.703125 123.402344 65.308594 171.613281 52.828125 C 161.101562 51.625 152.089844 49.308594 143.355469 45.925781 C 133.265625 42.011719 123.5625 36.683594 112.339844 29.996094 C 101.035156 36.695312 89.144531 42.03125 76.875 45.9375 C 64.722656 49.808594 52.214844 52.28125 39.550781 53.289062 C 41.238281 81.957031 48.84375 109.445312 61.320312 133.667969 C 73.601562 157.519531 90.605469 178.207031 111.316406 193.738281 L 111.316406 144.273438 L 133.164062 144.25 Z M 133.160156 144.25 " fill-opacity="1" fill-rule="evenodd"/></g><path fill="#56aeff" d="M 111.308594 68.8125 L 111.308594 144.277344 L 89.464844 144.304688 C 89.230469 140.226562 94.015625 116.710938 95.035156 109.28125 C 95.203125 108.046875 95.996094 104.691406 95.789062 103.78125 C 92.34375 100.066406 90.238281 95.09375 90.238281 89.625 C 90.238281 78.128906 99.554688 68.808594 111.054688 68.808594 C 111.140625 68.808594 111.226562 68.808594 111.308594 68.8125 Z M 111.308594 68.8125 " fill-opacity="1" fill-rule="evenodd"/></svg>