<svg xmlns="http://www.w3.org/2000/svg" xmlns:xlink="http://www.w3.org/1999/xlink" width="300" zoomAndPan="magnify" viewBox="0 0 224.87999 225" height="300" preserveAspectRatio="xMidYMid meet" version="1.0"><defs><clipPath id="39cf6bd4f8"><path d="M 28.117188 32.617188 L 196.753906 32.617188 L 196.753906 224.9375 L 28.117188 224.9375 Z M 28.117188 32.617188 " clip-rule="nonzero"/></clipPath><clipPath id="19195df46d"><path d="M 33.726562 0.0585938 L 192.445312 0.0585938 L 192.445312 113.941406 L 33.726562 113.941406 Z M 33.726562 0.0585938 " clip-rule="nonzero"/></clipPath></defs><g clip-path="url(#39cf6bd4f8)"><path fill="#1893f8" d="M 196.585938 57.777344 C 197.894531 92.761719 191.636719 124.121094 177.804688 151.859375 C 176.941406 153.667969 176.046875 155.464844 175.121094 157.242188 C 168.265625 170.449219 159.925781 182.574219 150.371094 193.324219 C 140.816406 204.074219 130.039062 213.453125 118.300781 221.164062 L 112.84375 224.75 C 112.558594 224.945312 112.175781 224.960938 111.871094 224.757812 L 106.402344 221.164062 C 94.664062 213.453125 83.882812 204.074219 74.328125 193.324219 C 64.773438 182.574219 56.4375 170.449219 49.582031 157.242188 C 42.5625 143.726562 37.199219 129.226562 33.585938 114.160156 C 29.976562 99.097656 28.117188 83.484375 28.117188 67.738281 L 28.117188 57.777344 C 28.117188 57.289062 28.511719 56.898438 28.996094 56.898438 L 38.957031 56.898438 C 50.808594 56.898438 62.558594 55.125 73.898438 51.679688 C 85.246094 48.226562 96.183594 43.097656 106.402344 36.386719 L 111.859375 32.800781 C 112.144531 32.609375 112.527344 32.59375 112.832031 32.792969 L 118.300781 36.386719 C 128.519531 43.097656 139.460938 48.226562 150.808594 51.679688 C 162.144531 55.125 173.898438 56.898438 185.75 56.898438 L 195.710938 56.898438 C 196.195312 56.898438 196.585938 57.289062 196.585938 57.777344 Z M 130.164062 155.929688 C 130.300781 153.496094 126.390625 131.652344 125.476562 126.375 C 125.3125 125.441406 124.671875 122.25 124.738281 121.574219 C 124.875 120.191406 133.335938 111.753906 126.4375 99.859375 C 125.996094 99.101562 126.058594 99.183594 125.859375 99.03125 C 122.679688 94.480469 117.433594 91.488281 111.476562 91.417969 L 111.476562 82.613281 L 111.480469 82.613281 C 111.480469 82.445312 111.527344 82.273438 111.632812 82.121094 C 111.90625 81.722656 112.449219 81.621094 112.847656 81.890625 C 112.875 81.910156 121.816406 88.417969 163.050781 77.742188 C 154.058594 76.710938 146.351562 74.730469 138.882812 71.835938 C 130.25 68.492188 121.953125 63.9375 112.355469 58.214844 C 102.6875 63.945312 92.515625 68.507812 82.023438 71.851562 C 71.632812 75.160156 60.933594 77.273438 50.105469 78.136719 C 51.546875 102.65625 58.050781 126.164062 68.71875 146.882812 C 79.226562 167.28125 93.765625 184.972656 111.480469 198.253906 L 111.480469 155.953125 Z M 130.164062 155.929688 " fill-opacity="1" fill-rule="evenodd"/></g><path fill="#56aeff" d="M 111.476562 91.414062 L 111.476562 155.953125 L 92.792969 155.976562 C 92.59375 152.488281 96.683594 132.378906 97.554688 126.023438 C 97.699219 124.96875 98.378906 122.097656 98.203125 121.320312 C 95.253906 118.144531 93.453125 113.890625 93.453125 109.214844 C 93.453125 99.378906 101.421875 91.410156 111.257812 91.410156 C 111.328125 91.410156 111.402344 91.410156 111.476562 91.410156 Z M 111.476562 91.414062 " fill-opacity="1" fill-rule="evenodd"/><g clip-path="url(#19195df46d)"><path fill="#66a0d9" d="M 190.585938 113.941406 C 190.585938 113.941406 163.539062 79.195312 113.085938 79.195312 C 62.628906 79.195312 35.582031 113.941406 35.582031 113.941406 C 35.582031 113.941406 24.925781 13.183594 54.65625 4.199219 C 84.625 -4.863281 90.679688 -6.742188 113.085938 -6.742188 C 135.488281 -6.742188 141.542969 -4.863281 171.515625 4.199219 C 201.242188 13.183594 190.585938 113.941406 190.585938 113.941406 " fill-opacity="1" fill-rule="nonzero"/></g><path fill="#ffffff" d="M 135.847656 31.867188 L 135.847656 45.132812 L 119.714844 45.132812 L 119.714844 61.28125 L 106.457031 61.28125 L 106.457031 45.132812 L 90.324219 45.132812 L 90.324219 31.867188 L 106.457031 31.867188 L 106.457031 15.71875 L 119.714844 15.71875 L 119.714844 31.867188 L 135.847656 31.867188 " fill-opacity="1" fill-rule="nonzero"/></svg>